<?xml version="1.0" encoding="UTF-8" standalone="no"?><!DOCTYPE svg PUBLIC "-//W3C//DTD SVG 1.1//EN" "http://www.w3.org/Graphics/SVG/1.1/DTD/svg11.dtd"><svg width="100%" height="100%" viewBox="0 0 50 50" version="1.1" xmlns="http://www.w3.org/2000/svg" xmlns:xlink="http://www.w3.org/1999/xlink" xml:space="preserve" xmlns:serif="http://www.serif.com/" style="fill-rule:evenodd;clip-rule:evenodd;stroke-linejoin:round;stroke-miterlimit:1.41421;"><path d="M42.604,42.607l-7.411,0l0,-11.604c0,-2.768 -0.051,-6.328 -3.854,-6.328c-3.859,0 -4.45,3.015 -4.45,6.127l0,11.805l-7.41,0l0,-23.862l7.113,0l0,3.261l0.099,0c0.99,-1.876 3.409,-3.855 7.017,-3.855c7.51,0 8.896,4.943 8.896,11.367l0,13.089Zm-31.483,-27.124c-2.377,0 -4.301,-1.927 -4.301,-4.301c0,-2.371 1.924,-4.298 4.301,-4.298c0.753,0 1.461,0.194 2.077,0.536c1.324,0.733 2.22,2.144 2.22,3.762c0,2.374 -1.926,4.301 -4.297,4.301Zm3.707,27.124l-7.417,0l0,-23.862l7.417,0l0,23.862Zm31.47,-42.607l-42.61,0c-2.036,0 -3.69,1.614 -3.69,3.604l0,42.788c0,1.992 1.654,3.608 3.69,3.608l42.61,0c2.039,0 3.701,-1.616 3.701,-3.608l0,-42.788c0,-1.99 -1.662,-3.604 -3.701,-3.604Z" style="fill:#fff;fill-rule:nonzero;"/></svg>