<?xml version="1.0" encoding="UTF-8" standalone="no"?><!DOCTYPE svg PUBLIC "-//W3C//DTD SVG 1.1//EN" "http://www.w3.org/Graphics/SVG/1.1/DTD/svg11.dtd"><svg width="100%" height="100%" viewBox="0 0 50 50" version="1.1" xmlns="http://www.w3.org/2000/svg" xmlns:xlink="http://www.w3.org/1999/xlink" xml:space="preserve" xmlns:serif="http://www.serif.com/" style="fill-rule:evenodd;clip-rule:evenodd;stroke-linejoin:round;stroke-miterlimit:1.41421;"><path id="Logo__x2014__FIXED" d="M15.707,45.328c18.867,0 29.191,-15.646 29.191,-29.192c0,-0.44 0,-0.88 -0.02,-1.32c2.001,-1.441 3.742,-3.262 5.122,-5.322c-1.84,0.82 -3.821,1.36 -5.902,1.62c2.121,-1.26 3.741,-3.281 4.522,-5.682c-1.981,1.18 -4.182,2.021 -6.523,2.481c-1.881,-2.001 -4.542,-3.241 -7.483,-3.241c-5.662,0 -10.264,4.601 -10.264,10.264c0,0.8 0.1,1.58 0.26,2.341c-8.523,-0.421 -16.086,-4.522 -21.148,-10.725c-0.881,1.521 -1.381,3.282 -1.381,5.162c0,3.562 1.821,6.703 4.562,8.544c-1.681,-0.06 -3.261,-0.52 -4.642,-1.281c0,0.04 0,0.08 0,0.14c0,4.962 3.541,9.124 8.223,10.064c-0.86,0.241 -1.76,0.361 -2.701,0.361c-0.66,0 -1.3,-0.06 -1.921,-0.181c1.301,4.082 5.103,7.043 9.584,7.123c-3.521,2.761 -7.943,4.402 -12.745,4.402c-0.82,0 -1.64,-0.04 -2.441,-0.14c4.522,2.881 9.924,4.582 15.707,4.582" style="fill:#fff;fill-rule:nonzero;"/></svg>